<svg width="48" height="48" viewBox="0 0 48 48" fill="none" xmlns="http://www.w3.org/2000/svg">
<g clip-path="url(#clip0_624_71)">
<path d="M24 46.4C36.3712 46.4 46.4 36.3712 46.4 24C46.4 11.6288 36.3712 1.6 24 1.6C11.6288 1.6 1.59998 11.6288 1.59998 24C1.59998 36.3712 11.6288 46.4 24 46.4Z" fill="#36497A"/>
<path d="M24 26.4C28.4183 26.4 32 22.8183 32 18.4C32 13.9817 28.4183 10.4 24 10.4C19.5817 10.4 16 13.9817 16 18.4C16 22.8183 19.5817 26.4 24 26.4Z" fill="white"/>
<mask id="mask0_624_71" style="mask-type:luminance" maskUnits="userSpaceOnUse" x="4" y="6" width="42" height="65">
<path d="M25 70.5C36.598 70.5 46 55.5015 46 37C46 18.4985 36.598 6 25 6C13.402 6 4 18.4985 4 37C4 55.5015 13.402 70.5 25 70.5Z" fill="white"/>
</mask>
<g mask="url(#mask0_624_71)">
<path d="M23.96 64.3902C32.7745 64.3902 39.92 56.9155 39.92 47.6951C39.92 38.4746 32.7745 31 23.96 31C15.1455 31 8 38.4746 8 47.6951C8 56.9155 15.1455 64.3902 23.96 64.3902Z" fill="white"/>
</g>
</g>
<defs>
<clipPath id="clip0_624_71">
<rect width="48" height="48" fill="white"/>
</clipPath>
</defs>
</svg>
