<svg width="42" height="48" viewBox="0 0 42 48" fill="none" xmlns="http://www.w3.org/2000/svg">
<g clip-path="url(#clip0_626_79)">
<path d="M19.707 0.0562515C16.551 0.326252 13.7015 1.47375 11.2064 3.4725C9.72178 4.665 8.66819 5.84625 7.63855 7.48125C6.06295 9.9825 5.23923 12.6525 5.13866 15.5738L5.10993 16.47L4.98541 16.5075C3.83604 16.875 2.72498 17.475 1.99704 18.1275C0.890769 19.1213 0.258614 20.2238 0.0526851 21.525C0.0143727 21.7388 5.50308e-06 24.3225 5.50308e-06 29.3625C5.50308e-06 37.5413 -0.00478355 37.3238 0.268192 38.28C0.656106 39.6413 1.46546 40.9163 2.70103 42.1275C3.16557 42.585 4.31494 43.4963 4.91836 43.8825C8.0504 45.9075 12.2169 47.265 16.8575 47.7713C18.39 47.94 19.1562 47.9775 21 47.9775C22.8438 47.9775 23.61 47.94 25.1425 47.7713C29.7831 47.265 33.9496 45.9075 37.0816 43.8825C37.6851 43.4963 38.8344 42.585 39.299 42.1275C40.5346 40.9163 41.3439 39.6413 41.7318 38.28C42.0048 37.3238 42 37.5413 42 29.3625C42 24.3225 41.9856 21.7388 41.9473 21.525C41.7414 20.2238 41.1092 19.1213 40.003 18.1275C39.275 17.475 38.164 16.875 37.0146 16.5075L36.8901 16.47L36.8614 15.5738C36.7895 13.455 36.3298 11.4638 35.4725 9.54375C34.7494 7.92 33.6623 6.2775 32.4698 5.00625C31.421 3.885 30.0034 2.775 28.6146 1.9875C25.9806 0.494999 22.7528 -0.202499 19.707 0.0562515ZM22.4942 5.84625C24.3715 6.1575 25.9423 6.94875 27.2545 8.23875C28.2506 9.2175 29.1318 10.6238 29.6251 12.0338C30.0322 13.1925 30.2429 14.265 30.3051 15.4838L30.3387 16.0875H21H11.6614L11.6949 15.4838C11.8002 13.4325 12.3749 11.5613 13.3854 9.95625C14.9227 7.515 17.1975 6.0825 20.0182 5.775C20.5403 5.71875 21.9865 5.76 22.4942 5.84625ZM21.9913 25.0313C23.8255 25.2825 25.3628 26.145 26.2392 27.42C26.6463 28.005 26.8331 28.4963 26.9241 29.2088C27.1252 30.7688 26.2201 32.3588 24.5822 33.3225L24.2326 33.5288V35.6663V37.8H21H17.7674V35.6663V33.5288L17.4178 33.3225C15.0759 31.9425 14.372 29.4338 15.7608 27.42C16.6276 26.1563 18.1601 25.29 19.9799 25.0313C20.4588 24.9638 21.4981 24.9638 21.9913 25.0313Z" fill="white"/>
</g>
<defs>
<clipPath id="clip0_626_79">
<rect width="42" height="48" fill="white"/>
</clipPath>
</defs>
</svg>
